<?xml version="1.0" encoding="UTF-8"?>
<svg id="Capa_1" xmlns="http://www.w3.org/2000/svg" viewBox="0 0 250 150">
  <defs>
    <style>
      .cls-1 {
        fill: #1c3256;
      }

      .cls-2 {
        fill: #1c3155;
      }

      .cls-3 {
        font-family: Poppins-Medium, Poppins;
        font-size: 6.3px;
        font-weight: 500;
        letter-spacing: .19em;
      }

      .cls-3, .cls-4 {
        fill: #1b2f51;
      }

      .cls-5 {
        fill: #3a5faa;
      }
    </style>
  </defs>
  <g>
    <path class="cls-4" d="M72.36,65.04c1.13-1.97,2.66-3.51,4.61-4.61,1.95-1.1,4.13-1.65,6.56-1.65,2.83,0,5.32.73,7.45,2.18,2.13,1.45,3.62,3.46,4.47,6.03h-5.85c-.58-1.21-1.4-2.12-2.45-2.73s-2.27-.91-3.65-.91c-1.48,0-2.79.34-3.94,1.04-1.15.69-2.05,1.67-2.69,2.92-.64,1.26-.96,2.74-.96,4.43s.32,3.14.96,4.41c.64,1.27,1.54,2.25,2.69,2.94,1.15.69,2.46,1.04,3.94,1.04,1.38,0,2.6-.31,3.65-.93,1.05-.62,1.87-1.53,2.45-2.74h5.85c-.85,2.59-2.33,4.61-4.45,6.05-2.12,1.44-4.61,2.16-7.47,2.16-2.42,0-4.61-.55-6.56-1.65-1.95-1.1-3.49-2.63-4.61-4.6-1.13-1.96-1.69-4.19-1.69-6.68s.56-4.73,1.69-6.7Z"/>
    <path class="cls-4" d="M103.51,83.5c-1.55-.86-2.77-2.08-3.65-3.65-.88-1.57-1.33-3.39-1.33-5.45s.45-3.88,1.36-5.45c.91-1.57,2.15-2.79,3.72-3.65,1.57-.86,3.33-1.29,5.27-1.29s3.69.43,5.27,1.29c1.57.86,2.82,2.08,3.72,3.65s1.36,3.39,1.36,5.45-.47,3.88-1.4,5.45c-.93,1.57-2.19,2.79-3.78,3.65s-3.36,1.29-5.32,1.29-3.68-.43-5.23-1.29ZM111.34,79.68c.81-.45,1.46-1.12,1.94-2.02.48-.9.73-1.99.73-3.27,0-1.91-.5-3.38-1.51-4.41-1-1.03-2.23-1.54-3.69-1.54s-2.67.52-3.65,1.54-1.47,2.5-1.47,4.41.48,3.38,1.43,4.41c.96,1.03,2.16,1.54,3.62,1.54.92,0,1.79-.22,2.6-.67Z"/>
    <path class="cls-4" d="M139.95,66.31c1.48,1.51,2.22,3.63,2.22,6.34v11.81h-5.09v-11.12c0-1.6-.4-2.83-1.2-3.69-.8-.86-1.89-1.29-3.27-1.29s-2.51.43-3.32,1.29c-.81.86-1.22,2.09-1.22,3.69v11.12h-5.09v-20.13h5.09v2.51c.68-.87,1.54-1.56,2.6-2.05,1.05-.5,2.21-.74,3.47-.74,2.4,0,4.34.76,5.81,2.27Z"/>
    <path class="cls-4" d="M155.39,79.77l5.09-15.44h5.41l-7.45,20.13h-6.18l-7.41-20.13h5.45l5.09,15.44Z"/>
    <path class="cls-4" d="M169.1,61.08c-.59-.57-.89-1.28-.89-2.13s.3-1.56.89-2.12c.59-.57,1.34-.85,2.23-.85s1.64.29,2.23.85c.59.57.89,1.28.89,2.12s-.3,1.56-.89,2.13c-.59.57-1.34.85-2.23.85s-1.64-.28-2.23-.85ZM173.84,64.33v20.13h-5.09v-20.13h5.09Z"/>
    <path class="cls-4" d="M187.25,79.77l5.09-15.44h5.41l-7.45,20.13h-6.18l-7.41-20.13h5.45l5.09,15.44Z"/>
    <path class="cls-5" d="M200.96,61.08c-.59-.57-.89-1.28-.89-2.13s.3-1.56.89-2.12c.59-.57,1.34-.85,2.23-.85s1.64.29,2.23.85c.59.57.89,1.28.89,2.12s-.3,1.56-.89,2.13c-.59.57-1.34.85-2.23.85s-1.64-.28-2.23-.85ZM205.7,64.33v20.13h-5.09v-20.13h5.09Z"/>
    <path class="cls-5" d="M226.27,79.63h-10.1l-1.67,4.83h-5.34l9.12-25.39h5.92l9.12,25.39h-5.38l-1.67-4.83ZM224.89,75.56l-3.67-10.61-3.67,10.61h7.34Z"/>
    <path class="cls-5" d="M246.46,73.14h-4.99v5.13h-3.49v-5.13h-5v-3.22h5v-5.13h3.49v5.13h4.99v3.22Z"/>
  </g>
  <text class="cls-3" transform="translate(82.15 96.94)"><tspan x="0" y="0">GESTIÓN DE CONVIVENCIA ESCOLAR</tspan></text>
  <g>
    <path class="cls-5" d="M33.31,86.72c.69-.91,1.35-1.83,2.07-2.71,3.19-3.92,7.03-7.05,11.4-9.56.23-.13.46-.26.69-.36.38-.17.79-.32,1.1.1.31.43.13.81-.21,1.14-.51.5-1.02,1-1.52,1.5-5.59,5.67-9.84,12.22-12.9,19.56-.06.15-.11.32-.19.46-.25.45-.57.45-.83-.01-.1-.18-.18-.39-.26-.58-2.11-5.25-5.02-9.99-8.99-14.06-.75-.77-.85-1.41-.39-2.09.48-.69,1.22-.89,2.15-.49,2.6,1.11,4.61,2.98,6.38,5.13.53.64,1,1.31,1.51,1.99Z"/>
    <path class="cls-1" d="M47.68,64.16v-7.14h2.38v-1.23l-16.72-7.98-16.72,7.98v1.23h2.38v7.14s-5.38-2.29-13.23-1.72v14.06h1.94v-12.26s9.61-.26,14.55,3.17v-10.49l11.08-5.34,11.08,5.34v10.49c4.94-3.44,14.55-3.17,14.55-3.17v12.26h1.94v-14.06c-7.85-.57-13.23,1.72-13.23,1.72Z"/>
    <path class="cls-5" d="M5.77,78.41h1.94l.09,11.4c2.28-.28,5.96-.49,11.26,1.41,6.94,2.49,10.52,7.68,11.76,9.58-2.79-2.48-8.59-6.9-16.99-8.23-3.05-.48-5.79-.45-8.05-.24v-13.93Z"/>
    <path class="cls-2" d="M5.77,94.06v3.35s15.32-1.55,24.26,3.16c0,0-8.74-8.1-24.26-6.51Z"/>
    <g>
      <path class="cls-5" d="M60.91,78.41h-1.94s-.09,11.4-.09,11.4c-2.28-.28-5.96-.49-11.26,1.41-6.94,2.49-10.52,7.68-11.76,9.58,2.79-2.48,8.59-6.9,16.99-8.23,3.05-.48,5.79-.45,8.05-.24v-13.93Z"/>
      <path class="cls-2" d="M60.91,94.06v3.35s-15.32-1.55-24.26,3.16c0,0,8.74-8.1,24.26-6.51Z"/>
    </g>
    <circle class="cls-5" cx="33.34" cy="73.73" r="4.07"/>
    <circle class="cls-1" cx="32.88" cy="60.04" r="2.87"/>
    <polygon class="cls-1" points="36.92 45.4 37.66 44.09 33.57 44.09 33.57 43.71 33.11 43.71 33.11 47.98 33.57 47.98 33.57 46.7 37.66 46.7 36.92 45.4"/>
  </g>
</svg>