<?xml version="1.0" encoding="UTF-8"?>
<svg id="Capa_1" xmlns="http://www.w3.org/2000/svg" viewBox="0 0 32 32">
  <defs>
    <style>
      .cls-1 {
        fill: #1e3a5f;
      }

      .cls-2 {
        fill: #fff;
      }
    </style>
  </defs>
  <rect class="cls-1" width="32" height="32" rx="3.51" ry="3.51"/>
  <g>
    <path class="cls-2" d="M15.99,22.31c.3-.4.59-.8.9-1.18,1.39-1.71,3.07-3.08,4.97-4.17.1-.06.2-.11.3-.16.17-.07.34-.14.48.04.14.19.05.35-.09.5-.22.22-.44.44-.66.66-2.44,2.47-4.29,5.33-5.63,8.53-.03.07-.05.14-.08.2-.11.2-.25.2-.36,0-.05-.08-.08-.17-.11-.26-.92-2.29-2.19-4.36-3.92-6.13-.33-.33-.37-.62-.17-.91.21-.3.53-.39.94-.22,1.14.49,2.01,1.3,2.78,2.24.23.28.44.57.66.87Z"/>
    <path class="cls-2" d="M22.26,12.47v-3.12h1.04v-.54l-7.3-3.48-7.3,3.48v.54h1.04v3.12s-2.35-1-5.77-.75v6.14h.85v-5.35s4.19-.12,6.35,1.38v-4.58l4.83-2.33,4.83,2.33v4.58c2.15-1.5,6.35-1.38,6.35-1.38v5.35h.85v-6.14c-3.42-.25-5.77.75-5.77.75Z"/>
    <path class="cls-2" d="M3.97,18.68h.85l.04,4.97c1-.12,2.6-.21,4.91.62,3.03,1.09,4.59,3.35,5.13,4.18-1.22-1.08-3.75-3.01-7.41-3.59-1.33-.21-2.53-.2-3.51-.1v-6.08Z"/>
    <path class="cls-2" d="M3.97,25.51v1.46s6.69-.67,10.58,1.38c0,0-3.81-3.53-10.58-2.84Z"/>
    <g>
      <path class="cls-2" d="M28.03,18.68h-.85s-.04,4.97-.04,4.97c-1-.12-2.6-.21-4.91.62-3.03,1.09-4.59,3.35-5.13,4.18,1.22-1.08,3.75-3.01,7.41-3.59,1.33-.21,2.53-.2,3.51-.1v-6.08Z"/>
      <path class="cls-2" d="M28.03,25.51v1.46s-6.69-.67-10.58,1.38c0,0,3.81-3.53,10.58-2.84Z"/>
    </g>
    <circle class="cls-2" cx="16" cy="16.64" r="1.77"/>
    <circle class="cls-2" cx="15.8" cy="10.67" r="1.25"/>
    <polygon class="cls-2" points="17.56 4.28 17.89 3.71 16.1 3.71 16.1 3.54 15.9 3.54 15.9 5.41 16.1 5.41 16.1 4.85 17.89 4.85 17.56 4.28"/>
  </g>
</svg>