<?xml version="1.0" encoding="UTF-8"?>
<svg id="Capa_1" xmlns="http://www.w3.org/2000/svg" viewBox="0 0 250 150">
  <defs>
    <style>
      .cls-1 {
        fill: #1c3256;
      }

      .cls-2 {
        fill: #1c3155;
      }

      .cls-3, .cls-4 {
        fill: #1b2f51;
      }

      .cls-4 {
        font-family: Poppins-Medium, Poppins;
        font-size: 8.49px;
        font-weight: 500;
        letter-spacing: .16em;
      }

      .cls-5 {
        fill: #3a5faa;
      }
    </style>
  </defs>
  <g>
    <path class="cls-3" d="M8.89,92.14c1.52-2.66,3.59-4.73,6.21-6.21,2.62-1.48,5.57-2.23,8.83-2.23,3.82,0,7.16.98,10.03,2.94s4.88,4.67,6.02,8.12h-7.88c-.78-1.63-1.88-2.86-3.3-3.67s-3.06-1.22-4.92-1.22c-1.99,0-3.76.46-5.31,1.39-1.55.93-2.76,2.24-3.62,3.94-.86,1.7-1.3,3.69-1.3,5.97s.43,4.23,1.3,5.95c.87,1.71,2.07,3.03,3.62,3.96,1.55.93,3.32,1.39,5.31,1.39,1.86,0,3.5-.42,4.92-1.25,1.42-.83,2.52-2.06,3.3-3.7h7.88c-1.14,3.49-3.14,6.21-5.99,8.15-2.86,1.94-6.21,2.91-10.05,2.91-3.26,0-6.21-.74-8.83-2.23-2.63-1.48-4.7-3.55-6.21-6.19-1.52-2.64-2.28-5.64-2.28-9s.76-6.37,2.28-9.03Z"/>
    <path class="cls-3" d="M50.84,117c-2.09-1.16-3.73-2.8-4.92-4.92-1.19-2.12-1.79-4.57-1.79-7.34s.61-5.22,1.84-7.34c1.22-2.12,2.89-3.76,5.02-4.92,2.12-1.16,4.48-1.74,7.09-1.74s4.97.58,7.09,1.74c2.12,1.16,3.79,2.8,5.02,4.92s1.84,4.57,1.84,7.34-.63,5.22-1.88,7.34c-1.26,2.12-2.95,3.76-5.09,4.92s-4.53,1.74-7.17,1.74-4.96-.58-7.05-1.74ZM61.39,111.86c1.09-.6,1.97-1.51,2.62-2.72.65-1.21.98-2.68.98-4.4,0-2.58-.68-4.56-2.03-5.95-1.35-1.39-3.01-2.08-4.97-2.08s-3.6.69-4.92,2.08-1.98,3.37-1.98,5.95.64,4.56,1.93,5.95c1.29,1.39,2.91,2.08,4.87,2.08,1.24,0,2.4-.3,3.5-.91Z"/>
    <path class="cls-3" d="M99.92,93.86c1.99,2.04,2.98,4.89,2.98,8.54v15.9h-6.85v-14.97c0-2.15-.54-3.81-1.62-4.97-1.08-1.16-2.54-1.74-4.4-1.74s-3.38.58-4.48,1.74c-1.09,1.16-1.64,2.81-1.64,4.97v14.97h-6.85v-27.11h6.85v3.38c.91-1.17,2.08-2.1,3.5-2.77,1.42-.67,2.98-1,4.67-1,3.23,0,5.84,1.02,7.83,3.06Z"/>
    <path class="cls-3" d="M120.72,111.98l6.85-20.8h7.29l-10.03,27.11h-8.32l-9.98-27.11h7.34l6.85,20.8Z"/>
    <path class="cls-3" d="M139.19,86.81c-.8-.77-1.2-1.72-1.2-2.86s.4-2.1,1.2-2.86c.8-.77,1.8-1.15,3.01-1.15s2.21.38,3.01,1.15c.8.77,1.2,1.72,1.2,2.86s-.4,2.1-1.2,2.86c-.8.77-1.8,1.15-3.01,1.15s-2.21-.38-3.01-1.15ZM145.58,91.19v27.11h-6.85v-27.11h6.85Z"/>
    <path class="cls-3" d="M163.63,111.98l6.85-20.8h7.29l-10.03,27.11h-8.32l-9.98-27.11h7.34l6.85,20.8Z"/>
    <path class="cls-5" d="M182.1,86.81c-.8-.77-1.2-1.72-1.2-2.86s.4-2.1,1.2-2.86c.8-.77,1.8-1.15,3.01-1.15s2.21.38,3.01,1.15c.8.77,1.2,1.72,1.2,2.86s-.4,2.1-1.2,2.86c-.8.77-1.8,1.15-3.01,1.15s-2.21-.38-3.01-1.15ZM188.49,91.19v27.11h-6.85v-27.11h6.85Z"/>
    <path class="cls-5" d="M216.19,111.79h-13.6l-2.25,6.51h-7.19l12.28-34.2h7.98l12.28,34.2h-7.24l-2.25-6.51ZM214.33,106.31l-4.94-14.29-4.94,14.29h9.88Z"/>
    <path class="cls-5" d="M243.39,103.05h-6.73v6.9h-4.7v-6.9h-6.73v-4.34h6.73v-6.9h4.7v6.9h6.73v4.34Z"/>
  </g>
  <text class="cls-4" transform="translate(30.15 132.42)"><tspan x="0" y="0">GESTIÓN DE CONVIVENCIA ESCOLAR</tspan></text>
  <g>
    <path class="cls-5" d="M123.59,61.65c.79-1.04,1.54-2.09,2.36-3.09,3.63-4.46,8.01-8.04,12.99-10.89.26-.15.52-.29.79-.41.43-.19.9-.37,1.25.11.36.49.14.92-.24,1.29-.58.57-1.16,1.14-1.73,1.71-6.37,6.46-11.22,13.92-14.7,22.29-.07.17-.13.36-.22.52-.29.52-.65.51-.95-.01-.12-.21-.21-.44-.3-.67-2.41-5.99-5.73-11.39-10.25-16.02-.85-.87-.97-1.61-.45-2.38.54-.79,1.39-1.01,2.45-.56,2.97,1.27,5.25,3.4,7.27,5.84.6.73,1.14,1.5,1.72,2.26Z"/>
    <path class="cls-1" d="M139.96,35.95v-8.14h2.71v-1.41l-19.06-9.09-19.06,9.09v1.41h2.71v8.14s-6.13-2.61-15.07-1.96v16.03h2.21v-13.97s10.95-.3,16.58,3.62v-11.96l12.63-6.08,12.63,6.08v11.96c5.63-3.92,16.58-3.62,16.58-3.62v13.97h2.21v-16.03c-8.94-.65-15.07,1.96-15.07,1.96Z"/>
    <path class="cls-5" d="M92.2,52.18h2.21l.1,12.99c2.6-.32,6.79-.55,12.83,1.61,7.91,2.84,11.99,8.75,13.4,10.92-3.18-2.83-9.79-7.86-19.36-9.38-3.48-.55-6.6-.52-9.18-.27v-15.87Z"/>
    <path class="cls-2" d="M92.2,70.02v3.82s17.46-1.76,27.64,3.6c0,0-9.96-9.22-27.64-7.42Z"/>
    <g>
      <path class="cls-5" d="M155.03,52.18h-2.21s-.1,12.99-.1,12.99c-2.6-.32-6.79-.55-12.83,1.61-7.91,2.84-11.99,8.75-13.4,10.92,3.18-2.83,9.79-7.86,19.36-9.38,3.48-.55,6.6-.52,9.18-.27v-15.87Z"/>
      <path class="cls-2" d="M155.03,70.02v3.82s-17.46-1.76-27.64,3.6c0,0,9.96-9.22,27.64-7.42Z"/>
    </g>
    <circle class="cls-5" cx="123.62" cy="46.85" r="4.63"/>
    <circle class="cls-1" cx="123.1" cy="31.26" r="3.28"/>
    <polygon class="cls-1" points="127.7 14.57 128.55 13.08 123.88 13.08 123.88 12.64 123.36 12.64 123.36 17.52 123.88 17.52 123.88 16.05 128.55 16.05 127.7 14.57"/>
  </g>
</svg>